<svg width="7" height="11" viewBox="0 0 7 11" fill="none" xmlns="http://www.w3.org/2000/svg">
<path fill-rule="evenodd" clip-rule="evenodd" d="M0.0253187 10.4379C0.114239 10.6776 0.257986 10.8275 0.49762 10.9303C0.635001 10.9892 0.678343 10.9972 0.858009 10.9968C1.24079 10.996 0.981863 11.2023 4.09433 8.41873C7.22192 5.62165 6.99642 5.84845 6.99642 5.49998C6.99642 5.15151 7.22192 5.37831 4.09433 2.58123C0.981718 -0.202443 1.24069 0.00384998 0.858009 0.00322628C0.684254 0.00294685 0.631877 0.011941 0.50699 0.0635567C0.323288 0.139443 0.15996 0.286375 0.0723615 0.45452C0.0147473 0.56509 0.00528107 0.609843 0.00636224 0.7665C0.00876483 1.10974 -0.181448 0.915174 2.52519 3.34302L4.92985 5.49998L2.52519 7.65694C0.363676 9.59584 0.114959 9.82586 0.0651777 9.93224C-0.00195078 10.0757 -0.0207149 10.3137 0.0253187 10.4379Z" fill="#7D1644"/>
</svg>
