<svg width="11" height="11" viewBox="0 0 11 11" fill="none" xmlns="http://www.w3.org/2000/svg">
<path fill-rule="evenodd" clip-rule="evenodd" d="M5.13877 0.0484984C5.06965 0.0773741 4.97757 0.125737 4.93414 0.155948C4.89072 0.186158 3.80202 1.26489 2.51479 2.55315C0.626005 4.44341 0.16354 4.91716 0.118263 5.00809C-0.0891461 5.42478 -0.0203041 5.88192 0.297756 6.19988C0.498294 6.40035 0.738078 6.49888 1.02646 6.49936L1.18262 6.49962V8.2353C1.18262 10.1448 1.17926 10.0914 1.31641 10.3631C1.41338 10.5552 1.64745 10.7802 1.85036 10.8762C1.93921 10.9183 2.06329 10.9634 2.12605 10.9764C2.1992 10.9915 2.59466 11 3.22679 11H4.21339L4.2846 10.9516C4.32376 10.9249 4.37608 10.8758 4.40088 10.8423C4.44527 10.7825 4.44609 10.7604 4.45671 9.3458C4.46649 8.04077 4.47086 7.90386 4.50455 7.84232C4.55991 7.74123 4.67034 7.63946 4.77957 7.58892C4.87116 7.54655 4.91318 7.54396 5.51217 7.54396C6.11202 7.54396 6.15303 7.54648 6.24453 7.58907C6.35768 7.64174 6.46353 7.74418 6.51817 7.85387C6.55387 7.92555 6.5577 8.04131 6.56763 9.35273C6.57786 10.7029 6.58045 10.7773 6.61954 10.8419C6.64216 10.8792 6.69681 10.9301 6.74094 10.9549C6.8192 10.9989 6.84599 11 7.80911 10.9997C8.90039 10.9993 8.95993 10.9936 9.20428 10.8655C9.3741 10.7765 9.61817 10.5325 9.7072 10.3628C9.84275 10.1044 9.84105 10.1313 9.84139 8.22763L9.84172 6.49962L9.99788 6.49936C10.3987 6.49871 10.7584 6.27567 10.9247 5.92473C10.9922 5.78225 10.9941 5.77034 10.9941 5.48757C10.9941 4.99242 11.2446 5.2877 8.47836 2.52235C5.72722 -0.227877 6.00722 0.0117848 5.53371 0.00170735C5.28957 -0.00350362 5.25274 0.000867565 5.13877 0.0484984ZM5.64748 0.65127C5.68811 0.668927 6.67697 1.64295 8.0358 3.00374C10.2181 5.18919 10.3557 5.33132 10.369 5.41515C10.3969 5.59045 10.2961 5.77062 10.1365 5.83078C10.1031 5.84333 9.93899 5.85363 9.77173 5.85363C9.41268 5.85363 9.32159 5.88285 9.24256 6.02344L9.19552 6.10711V8.00063C9.19552 10.1113 9.20191 10.0173 9.04743 10.1764C8.88465 10.3441 8.89439 10.3425 8.00543 10.3496L7.21383 10.356V9.13611C7.21383 8.09301 7.20888 7.89706 7.17971 7.78393C7.08192 7.40475 6.79244 7.09354 6.40828 6.95452C6.25851 6.90032 6.24128 6.89901 5.58756 6.89158C4.83618 6.88303 4.7218 6.89612 4.46547 7.01994C4.2781 7.11042 4.04141 7.33972 3.94494 7.52417C3.81085 7.78061 3.81051 7.78485 3.81051 9.13116V10.354H3.06052C2.23356 10.354 2.16437 10.3455 2.01924 10.2255C1.97588 10.1896 1.91772 10.1142 1.89 10.058L1.83959 9.95565L1.82882 8.01388C1.81818 6.09473 1.81754 6.07139 1.77364 6.01265C1.66994 5.87383 1.64216 5.86536 1.25112 5.8535C0.874534 5.84209 0.845864 5.83515 0.747814 5.73166C0.644185 5.62232 0.61726 5.48423 0.673824 5.3523C0.709946 5.26806 5.29186 0.686692 5.37769 0.649009C5.45756 0.613932 5.56367 0.614815 5.64748 0.65127Z" fill="#CDCDCD"/>
</svg>
