<svg width="50" height="50" viewBox="0 0 50 50" fill="none" xmlns="http://www.w3.org/2000/svg">
<path fill-rule="evenodd" clip-rule="evenodd" d="M31.6566 14.3132C31.3735 15.6452 32.2286 16.9536 33.5667 17.2352L44.9801 19.6392L47.4377 8.88425C47.7412 7.55675 46.9061 6.23559 45.5727 5.93344C44.2392 5.6313 42.9125 6.46281 42.6091 7.7905L41.8109 11.2833C41.7583 11.1953 41.7014 11.1087 41.6364 11.0261C37.5711 5.84134 31.2332 2.5 24.1129 2.5C11.8258 2.5 1.875 12.4392 1.875 24.6875C1.875 36.936 11.8258 46.875 24.1129 46.875C36.4001 46.875 46.3511 36.936 46.3511 24.6875C46.3511 23.3259 45.2419 22.2222 43.875 22.2222C42.5072 22.2222 41.3988 23.3259 41.3988 24.6875C41.3988 34.2238 33.6541 41.9444 24.1129 41.9444C14.5718 41.9444 6.82713 34.2238 6.82713 24.6875C6.82713 15.1514 14.5718 7.43056 24.1129 7.43056C29.069 7.43056 34.3447 9.78219 37.5 13.1247L34.5914 12.4114C33.2535 12.1297 31.9396 12.9812 31.6566 14.3132Z" fill="#7D1644"/>
</svg>
