<svg width="130" height="39" viewBox="0 0 130 39" fill="none" xmlns="http://www.w3.org/2000/svg">
<path d="M35.5172 16.732L31.5166 23.7465H25.6313L32.1329 13.8732L26.1368 4.82351H32.1762L35.5998 11.2258L39.0555 4.82351H44.9408L38.8244 13.8398L45.2489 23.7465H39.249L35.5172 16.732ZM57.2112 4.31333C59.2368 4.31333 60.8265 4.6349 61.9803 5.27804C63.0435 5.83632 63.9392 6.66106 64.5772 7.66938C65.1448 8.59337 65.5114 9.6238 65.6539 10.6952C65.7869 11.6476 65.8578 12.6075 65.8663 13.5689V15.5354H53.4793C53.4793 17.0196 53.8451 18.1327 54.5767 18.8748C55.3083 19.6169 56.5203 19.9928 58.2127 20.0027C59.247 20.0018 60.2782 19.8917 61.2888 19.6744C62.311 19.4574 63.3158 19.1672 64.2953 18.8061L65.4096 22.1882C64.1719 22.8683 62.8361 23.3575 61.4485 23.6389C60.1196 23.9129 58.7661 24.0533 57.4085 24.0582C55.5106 24.0582 53.9491 23.7948 52.7239 23.2679C51.5913 22.8104 50.5968 22.0732 49.8358 21.127C49.1275 20.21 48.6323 19.1503 48.3851 18.0232C48.1117 16.8007 47.9768 15.5519 47.983 14.2999C47.9898 13.1842 48.1157 12.0723 48.3588 10.9828C48.6068 9.81935 49.0906 8.7175 49.7813 7.74359C50.5193 6.72568 51.4834 5.88801 52.5999 5.29473C53.8025 4.64047 55.3396 4.31333 57.2112 4.31333ZM57.4235 7.82337C56.8247 7.80143 56.2289 7.91768 55.6835 8.16287C55.2322 8.38383 54.8411 8.70826 54.5429 9.10902C54.236 9.52842 54.007 9.99827 53.8664 10.4967C53.7099 11.0322 53.606 11.5815 53.5564 12.1367H60.866C60.8397 10.8776 60.5892 9.84306 60.1144 9.03295C59.6396 8.22285 58.7426 7.81965 57.4235 7.82337ZM82.7536 23.7465V12.0272C82.756 11.5759 82.7302 11.1249 82.6766 10.6767C82.6326 10.294 82.5043 9.92544 82.3007 9.59693C82.1009 9.28282 81.8112 9.03426 81.4683 8.88268C81.0148 8.69837 80.5264 8.61294 80.0364 8.63223C79.2957 8.65038 78.5636 8.79344 77.8717 9.05522C77.1173 9.31734 76.3915 9.65358 75.7051 10.0589V23.7465H70.2145V4.82351H75.4082L75.4853 6.55812L75.6394 6.63604C76.7119 5.9031 77.8867 5.32815 79.127 4.92926C80.1557 4.57711 81.233 4.38253 82.3214 4.35229C83.5816 4.35229 84.5976 4.52544 85.3693 4.87175C86.0843 5.17412 86.704 5.66039 87.1638 6.27984C87.6015 6.90392 87.8977 7.61393 88.0319 8.36137C88.1885 9.18782 88.2659 10.027 88.2631 10.8677V23.7465H82.7536ZM104.662 19.5983C104.344 19.6601 104.042 19.7139 103.756 19.7597C103.299 19.8403 102.836 19.8856 102.371 19.8951C101.397 19.8951 100.73 19.6577 100.37 19.1827C100.01 18.7078 99.8307 17.9657 99.8307 16.9565V0H94.4095V18.4277C94.4062 19.1509 94.503 19.8712 94.697 20.5686C94.8832 21.24 95.2336 21.8561 95.7174 22.3625C96.2765 22.9234 96.9614 23.3467 97.7167 23.5981C98.5636 23.9061 99.6409 24.06 100.949 24.06C101.853 24.0516 102.754 23.9616 103.641 23.791C103.993 23.7261 104.331 23.6445 104.662 23.5573V19.5983ZM104.662 4.81424H91.9912V9.57096H104.662V4.81424ZM14.9017 0H9.69667L0.0175018 23.6983H5.66603L7.57894 18.4332H17.0195L18.9324 23.6983H24.5809L14.9017 0ZM8.93939 14.58L12.2954 5.3541L15.6609 14.58H8.93939Z" fill="#6B003E"/>
<path d="M112 15.2H130V22.8119H112V15.2Z" fill="#6B003E"/>
<path d="M112 30.3941H130V38H112V30.3941Z" fill="#6B003E"/>
<path d="M112 0H130V7.61781H112V0Z" fill="#6B003E"/>
<path d="M45.78 28.9C45.962 28.874 46.1657 28.8523 46.391 28.835C46.625 28.8177 46.8633 28.8047 47.106 28.796C47.3487 28.7873 47.5827 28.783 47.808 28.783C48.042 28.7743 48.25 28.77 48.432 28.77C49.238 28.77 49.927 28.8827 50.499 29.108C51.071 29.3333 51.5347 29.6497 51.89 30.057C52.2453 30.4643 52.5053 30.9497 52.67 31.513C52.8347 32.0763 52.917 32.696 52.917 33.372C52.917 33.9873 52.839 34.581 52.683 35.153C52.527 35.725 52.267 36.232 51.903 36.674C51.539 37.116 51.058 37.4713 50.46 37.74C49.8707 38.0087 49.1383 38.143 48.263 38.143C48.1243 38.143 47.938 38.1387 47.704 38.13C47.4787 38.1213 47.2403 38.1083 46.989 38.091C46.7463 38.0823 46.5123 38.0693 46.287 38.052C46.0617 38.0433 45.8927 38.0303 45.78 38.013V28.9ZM48.575 30.356C48.3843 30.356 48.1893 30.3603 47.99 30.369C47.7993 30.3777 47.6563 30.3907 47.561 30.408V36.505C47.5957 36.5137 47.652 36.5223 47.73 36.531C47.8167 36.531 47.9077 36.5353 48.003 36.544C48.0983 36.544 48.1893 36.5483 48.276 36.557C48.3627 36.557 48.4277 36.557 48.471 36.557C48.9737 36.557 49.3897 36.4703 49.719 36.297C50.057 36.115 50.3213 35.8767 50.512 35.582C50.7113 35.2873 50.85 34.9493 50.928 34.568C51.006 34.178 51.045 33.7793 51.045 33.372C51.045 33.0167 51.0103 32.6613 50.941 32.306C50.8717 31.942 50.7417 31.617 50.551 31.331C50.369 31.045 50.1177 30.811 49.797 30.629C49.4763 30.447 49.069 30.356 48.575 30.356ZM60.372 28.9H65.767V30.486H62.153V32.605H65.442V34.191H62.153V36.414H65.832V38H60.372V28.9ZM79.098 38H73.339V28.9H75.12V36.414H79.098V38ZM90.9515 30.486H88.2995V38H86.5185V30.486H83.8535V28.9H90.9515V30.486ZM101.524 35.985H98.7286L98.0396 38H96.2586L99.5346 28.835H100.848L104.124 38H102.252L101.524 35.985ZM99.1836 34.555H101.134L100.458 32.527L100.185 31.097H100.12L99.8466 32.54L99.1836 34.555Z" fill="#7D1644"/>
</svg>
