<svg width="130" height="38" viewBox="0 0 130 38" fill="none" xmlns="http://www.w3.org/2000/svg">
<path d="M0.252387 30.7276H1.21072V37.8293H0.252387V30.7276ZM6.90435 30.5588C8.40761 30.5588 9.65533 31.3547 9.86766 32.8667H8.91121C8.69887 31.8612 7.90966 31.3528 6.89495 31.3528C5.18123 31.3528 4.45214 32.7442 4.45214 34.2265C4.45214 35.848 5.17747 37.1948 6.89495 37.1948C8.14454 37.1948 8.88866 36.3192 8.96194 35.1541H9.9184C9.73049 36.9351 8.62935 37.9981 6.80663 37.9981C4.57992 37.9981 3.48065 36.3674 3.48065 34.297C3.48065 32.2266 4.68891 30.5588 6.90435 30.5588ZM12.1658 30.7276H13.1222V33.7813H16.9067V30.7276H17.8688V37.8293H16.9105V34.5772H13.1185V37.8293H12.162L12.1658 30.7276ZM24.3065 30.7276H25.263V37.0353H29.0681V37.8312H24.3028L24.3065 30.7276ZM30.9811 30.7276H31.9394V37.8293H30.9811V30.7276ZM34.5814 30.7276H39.5478V31.5235H35.5322V33.7813H39.2716V34.5772H35.5322V37.0353H39.5722V37.8312H34.5739L34.5814 30.7276ZM41.7708 30.7276H44.3808C45.0047 30.7276 45.8615 30.7276 46.2843 30.9855C46.5472 31.1352 46.7644 31.352 46.9132 31.6132C47.0619 31.8743 47.1368 32.1701 47.1299 32.4697C47.1445 32.8122 47.0492 33.1505 46.8575 33.4363C46.6659 33.7222 46.3877 33.9409 46.0626 34.0614V34.0818C46.9495 34.2673 47.4324 34.9167 47.4324 35.7923C47.4324 36.8275 46.6677 37.833 45.2471 37.833H41.7708V30.7276ZM44.642 33.7813C45.73 33.7813 46.1735 33.4102 46.1735 32.6478C46.1735 31.6534 45.4782 31.5235 44.642 31.5235H42.7235V33.7813H44.642ZM45.1155 37.0353C45.9517 37.0353 46.4647 36.5474 46.4647 35.7626C46.4647 34.835 45.7131 34.579 44.9032 34.579H42.7235V37.0372L45.1155 37.0353ZM49.6949 30.7276H54.6613V31.5235H50.6588V33.7813H54.3982V34.5772H50.6588V37.0353H54.6989V37.8312H49.7005L49.6949 30.7276ZM60.7176 30.7276H63.8707C65.3119 30.7276 66.0786 31.5031 66.0786 32.8259C66.0786 34.1486 65.3119 34.9352 63.8707 34.9241H61.6815V37.8293H60.7251L60.7176 30.7276ZM61.6815 34.1356H63.5606C64.6486 34.1449 65.1315 33.6774 65.1315 32.837C65.1315 31.9966 64.6486 31.5383 63.5606 31.5383H61.6815V34.1356ZM68.2865 30.7332H73.2529V31.5291H69.243V33.7868H72.9823V34.5827H69.243V37.0409H73.283V37.8367H68.2846L68.2865 30.7332ZM75.4759 30.7332H78.8582C80.2187 30.7332 81.0436 31.4493 81.0436 32.5884C81.0436 33.4529 80.6678 34.1505 79.794 34.3879V34.4083C80.6302 34.5679 80.7918 35.1838 80.8707 35.8702C80.9215 36.5567 80.8914 37.3544 81.2935 37.8293H80.2243C79.9538 37.5399 80.1041 36.7756 79.9632 36.078C79.8523 35.3916 79.6926 34.7942 78.7643 34.7942H76.4324V37.8275H75.4759V30.7332ZM78.4279 34.0058C79.3149 34.0058 80.0909 33.7757 80.0909 32.7424C80.0909 32.0355 79.7151 31.5291 78.8113 31.5291H76.4324V34.0058H78.4279ZM83.4113 30.7332H88.1353V31.5291H84.3696V33.7868H87.6749V34.5827H84.3696V37.8349H83.4113V30.7332ZM90.2286 30.7332H95.195V31.5291H91.185V33.7868H94.9225V34.5827H91.185V37.0409H95.2251V37.8367H90.2286V30.7332ZM97.418 30.7332H98.3744V34.2748L102.022 30.7332H103.262L100.229 33.5921L103.384 37.8293H102.174L99.5751 34.2377L98.3763 35.3508V37.8386H97.4198L97.418 30.7332ZM106.749 31.5235H104.346V30.7276H110.1V31.5235H107.7V37.8312H106.749V31.5235ZM111.973 30.7276H112.932V37.8293H111.973V30.7276ZM118.616 30.5588C120.905 30.5588 122.062 32.3398 122.062 34.2785C122.062 36.2172 120.905 37.9981 118.616 37.9981C116.327 37.9981 115.172 36.2172 115.172 34.2785C115.172 32.3398 116.323 30.5588 118.61 30.5588H118.616ZM118.616 37.2041C120.369 37.2041 121.106 35.72 121.106 34.2803C121.106 32.8407 120.363 31.3528 118.61 31.3528C116.857 31.3528 116.122 32.837 116.122 34.2766C116.122 35.7163 116.857 37.2023 118.61 37.2023L118.616 37.2041ZM124.253 30.7295H125.27L129.058 36.4806H129.077V30.7295H129.982V37.8312H128.934L125.176 32.132H125.165V37.8312H124.259L124.253 30.7295ZM35.5172 16.732L31.5166 23.7465H25.6313L32.1329 13.8732L26.1368 4.82351H32.1762L35.5998 11.2258L39.0555 4.82351H44.9408L38.8244 13.8398L45.2489 23.7465H39.249L35.5172 16.732ZM57.2112 4.31333C59.2368 4.31333 60.8266 4.6349 61.9803 5.27804C63.0435 5.83632 63.9392 6.66106 64.5772 7.66938C65.1447 8.59337 65.5114 9.6238 65.6539 10.6952C65.7869 11.6476 65.8578 12.6075 65.8663 13.5689V15.5354H53.4793C53.4793 17.0196 53.8451 18.1327 54.5767 18.8748C55.3083 19.6169 56.5203 19.9928 58.2127 20.0027C59.247 20.0018 60.2782 19.8917 61.2888 19.6744C62.311 19.4574 63.3158 19.1672 64.2953 18.8061L65.4096 22.1882C64.1719 22.8683 62.8361 23.3575 61.4485 23.6389C60.1196 23.9129 58.7661 24.0533 57.4085 24.0582C55.5106 24.0582 53.9491 23.7948 52.7239 23.2679C51.5913 22.8104 50.5968 22.0732 49.8358 21.127C49.1275 20.21 48.6323 19.1503 48.3851 18.0232C48.1117 16.8007 47.9768 15.5519 47.983 14.2999C47.9898 13.1842 48.1157 12.0723 48.3588 10.9828C48.6068 9.81935 49.0906 8.7175 49.7813 7.74359C50.5193 6.72568 51.4834 5.88801 52.5999 5.29473C53.8025 4.64047 55.3396 4.31333 57.2112 4.31333ZM57.4235 7.82337C56.8247 7.80143 56.2289 7.91768 55.6835 8.16287C55.2322 8.38383 54.8411 8.70826 54.5429 9.10902C54.236 9.52842 54.007 9.99827 53.8664 10.4967C53.7099 11.0322 53.606 11.5815 53.5564 12.1367H60.866C60.8397 10.8776 60.5892 9.84306 60.1144 9.03295C59.6396 8.22285 58.7426 7.81965 57.4235 7.82337ZM82.7536 23.7465V12.0272C82.756 11.5759 82.7302 11.1249 82.6766 10.6767C82.6326 10.294 82.5043 9.92544 82.3007 9.59693C82.1009 9.28282 81.8112 9.03426 81.4683 8.88268C81.0148 8.69838 80.5264 8.61294 80.0364 8.63223C79.2957 8.65038 78.5636 8.79344 77.8717 9.05522C77.1173 9.31734 76.3915 9.65358 75.7051 10.0589V23.7465H70.2145V4.82351H75.4082L75.4853 6.55812L75.6394 6.63604C76.7119 5.9031 77.8867 5.32815 79.127 4.92926C80.1557 4.57711 81.233 4.38253 82.3214 4.35229C83.5816 4.35229 84.5976 4.52544 85.3693 4.87175C86.0843 5.17412 86.704 5.66039 87.1638 6.27984C87.6015 6.90392 87.8977 7.61393 88.0319 8.36137C88.1885 9.18782 88.2659 10.027 88.2631 10.8677V23.7465H82.7536ZM129.977 9.49861H111.889V14.2553H129.977V9.49861ZM129.977 18.9935H111.889V23.7465H129.977V18.9935ZM129.977 0H111.889V4.76044H129.977V0ZM104.662 19.5983C104.344 19.6601 104.042 19.7139 103.756 19.7597C103.299 19.8403 102.836 19.8856 102.371 19.8951C101.397 19.8951 100.73 19.6577 100.37 19.1827C100.01 18.7078 99.8307 17.9657 99.8307 16.9565V0H94.4095V18.4277C94.4062 19.1509 94.503 19.8712 94.697 20.5686C94.8832 21.24 95.2336 21.8561 95.7174 22.3625C96.2765 22.9234 96.9614 23.3467 97.7167 23.5981C98.5636 23.9061 99.6409 24.06 100.949 24.06C101.853 24.0516 102.754 23.9616 103.641 23.791C103.993 23.7261 104.331 23.6445 104.662 23.5573V19.5983ZM104.662 4.81424H91.9912V9.57096H104.662V4.81424ZM14.9017 0H9.69667L0.0175018 23.6983H5.66603L7.57894 18.4332H17.0195L18.9324 23.6983H24.5809L14.9017 0ZM8.93939 14.58L12.2954 5.3541L15.6609 14.58H8.93939Z" fill="#6B003E"/>
</svg>
