<svg width="130" height="38" viewBox="0 0 130 38" fill="none" xmlns="http://www.w3.org/2000/svg">
<path d="M0.252342 30.7276H1.21067V37.8293H0.252342V30.7276ZM6.9043 30.5588C8.40757 30.5588 9.65528 31.3547 9.86762 32.8667H8.91116C8.69883 31.8612 7.90961 31.3528 6.8949 31.3528C5.18118 31.3528 4.4521 32.7442 4.4521 34.2265C4.4521 35.848 5.17742 37.1948 6.8949 37.1948C8.1445 37.1948 8.88861 36.3192 8.9619 35.1541H9.91835C9.73044 36.9351 8.6293 37.9981 6.80659 37.9981C4.57987 37.9981 3.48061 36.3674 3.48061 34.297C3.48061 32.2266 4.68886 30.5588 6.9043 30.5588ZM12.1657 30.7276H13.1222V33.7813H16.9067V30.7276H17.8688V37.8293H16.9104V34.5772H13.1184V37.8293H12.162L12.1657 30.7276ZM24.3065 30.7276H25.263V37.0353H29.0681V37.8312H24.3027L24.3065 30.7276ZM30.981 30.7276H31.9393V37.8293H30.981V30.7276ZM34.5813 30.7276H39.5478V31.5235H35.5322V33.7813H39.2715V34.5772H35.5322V37.0353H39.5722V37.8312H34.5738L34.5813 30.7276ZM41.7707 30.7276H44.3808C45.0046 30.7276 45.8615 30.7276 46.2843 30.9855C46.5471 31.1352 46.7643 31.352 46.9131 31.6132C47.0619 31.8743 47.1368 32.1701 47.1299 32.4697C47.1445 32.8122 47.0492 33.1505 46.8575 33.4363C46.6658 33.7222 46.3876 33.9409 46.0625 34.0614V34.0818C46.9495 34.2673 47.4324 34.9167 47.4324 35.7923C47.4324 36.8275 46.6676 37.833 45.247 37.833H41.7707V30.7276ZM44.642 33.7813C45.7299 33.7813 46.1734 33.4102 46.1734 32.6478C46.1734 31.6534 45.4781 31.5235 44.642 31.5235H42.7234V33.7813H44.642ZM45.1155 37.0353C45.9517 37.0353 46.4647 36.5474 46.4647 35.7626C46.4647 34.835 45.713 34.579 44.9031 34.579H42.7234V37.0372L45.1155 37.0353ZM49.6948 30.7276H54.6612V31.5235H50.6588V33.7813H54.3982V34.5772H50.6588V37.0353H54.6988V37.8312H49.7004L49.6948 30.7276ZM60.7175 30.7276H63.8706C65.3119 30.7276 66.0785 31.5031 66.0785 32.8259C66.0785 34.1486 65.3119 34.9352 63.8706 34.9241H61.6815V37.8293H60.725L60.7175 30.7276ZM61.6815 34.1356H63.5606C64.6486 34.1449 65.1315 33.6774 65.1315 32.837C65.1315 31.9966 64.6486 31.5383 63.5606 31.5383H61.6815V34.1356ZM68.2865 30.7332H73.2529V31.5291H69.2429V33.7868H72.9823V34.5827H69.2429V37.0409H73.283V37.8367H68.2846L68.2865 30.7332ZM75.4759 30.7332H78.8582C80.2187 30.7332 81.0436 31.4493 81.0436 32.5884C81.0436 33.4529 80.6678 34.1505 79.794 34.3879V34.4083C80.6302 34.5679 80.7918 35.1838 80.8707 35.8702C80.9214 36.5567 80.8914 37.3544 81.2935 37.8293H80.2243C79.9537 37.5399 80.104 36.7756 79.9631 36.078C79.8522 35.3916 79.6925 34.7942 78.7642 34.7942H76.4323V37.8275H75.4759V30.7332ZM78.4279 34.0058C79.3148 34.0058 80.0909 33.7757 80.0909 32.7424C80.0909 32.0355 79.7151 31.5291 78.8112 31.5291H76.4323V34.0058H78.4279ZM83.4112 30.7332H88.1352V31.5291H84.3696V33.7868H87.6749V34.5827H84.3696V37.8349H83.4112V30.7332ZM90.2285 30.7332H95.195V31.5291H91.185V33.7868H94.9225V34.5827H91.185V37.0409H95.225V37.8367H90.2285V30.7332ZM97.4179 30.7332H98.3744V34.2748L102.022 30.7332H103.262L100.229 33.5921L103.384 37.8293H102.174L99.5751 34.2377L98.3763 35.3508V37.8386H97.4198L97.4179 30.7332ZM106.749 31.5235H104.346V30.7276H110.1V31.5235H107.7V37.8312H106.749V31.5235ZM111.973 30.7276H112.932V37.8293H111.973V30.7276ZM118.616 30.5588C120.905 30.5588 122.062 32.3398 122.062 34.2785C122.062 36.2172 120.905 37.9981 118.616 37.9981C116.327 37.9981 115.172 36.2172 115.172 34.2785C115.172 32.3398 116.323 30.5588 118.61 30.5588H118.616ZM118.616 37.2041C120.369 37.2041 121.106 35.72 121.106 34.2803C121.106 32.8407 120.363 31.3528 118.61 31.3528C116.857 31.3528 116.122 32.837 116.122 34.2766C116.122 35.7163 116.857 37.2023 118.61 37.2023L118.616 37.2041ZM124.253 30.7295H125.27L129.058 36.4806H129.077V30.7295H129.982V37.8312H128.934L125.176 32.132H125.164V37.8312H124.259L124.253 30.7295ZM35.5171 16.732L31.5165 23.7465H25.6313L32.1329 13.8732L26.1367 4.82351H32.1761L35.5998 11.2258L39.0554 4.82351H44.9407L38.8243 13.8398L45.2489 23.7465H39.249L35.5171 16.732ZM57.2111 4.31333C59.2368 4.31333 60.8265 4.6349 61.9803 5.27804C63.0435 5.83632 63.9391 6.66106 64.5772 7.66938C65.1447 8.59337 65.5114 9.6238 65.6539 10.6952C65.7868 11.6476 65.8577 12.6075 65.8662 13.5689V15.5354H53.4793C53.4793 17.0196 53.8451 18.1327 54.5767 18.8748C55.3083 19.6169 56.5203 19.9928 58.2127 20.0027C59.247 20.0018 60.2782 19.8917 61.2888 19.6744C62.311 19.4574 63.3158 19.1672 64.2953 18.8061L65.4096 22.1882C64.1719 22.8683 62.836 23.3575 61.4485 23.6389C60.1196 23.9129 58.766 24.0533 57.4085 24.0582C55.5106 24.0582 53.9491 23.7948 52.7239 23.2679C51.5913 22.8104 50.5967 22.0732 49.8357 21.127C49.1275 20.21 48.6322 19.1503 48.3851 18.0232C48.1116 16.8007 47.9767 15.5519 47.983 14.2999C47.9897 13.1842 48.1157 12.0723 48.3588 10.9828C48.6067 9.81935 49.0906 8.7175 49.7812 7.74359C50.5192 6.72568 51.4834 5.88801 52.5999 5.29473C53.8025 4.64047 55.3396 4.31333 57.2111 4.31333ZM57.4235 7.82337C56.8246 7.80143 56.2288 7.91768 55.6835 8.16287C55.2322 8.38383 54.8411 8.70826 54.5429 9.10902C54.236 9.52842 54.0069 9.99827 53.8664 10.4967C53.7098 11.0322 53.606 11.5815 53.5563 12.1367H60.866C60.8397 10.8776 60.5891 9.84306 60.1143 9.03295C59.6396 8.22285 58.7426 7.81965 57.4235 7.82337ZM82.7535 23.7465V12.0272C82.7559 11.5759 82.7302 11.1249 82.6765 10.6767C82.6326 10.294 82.5043 9.92544 82.3007 9.59693C82.1009 9.28282 81.8112 9.03426 81.4682 8.88268C81.0148 8.69838 80.5264 8.61294 80.0364 8.63223C79.2957 8.65038 78.5636 8.79344 77.8717 9.05522C77.1173 9.31734 76.3915 9.65358 75.7051 10.0589V23.7465H70.2144V4.82351H75.4082L75.4852 6.55812L75.6393 6.63604C76.7118 5.9031 77.8867 5.32815 79.1269 4.92926C80.1557 4.57711 81.233 4.38253 82.3214 4.35229C83.5816 4.35229 84.5975 4.52544 85.3692 4.87175C86.0843 5.17412 86.704 5.66039 87.1637 6.27984C87.6015 6.90392 87.8976 7.61393 88.0319 8.36137C88.1884 9.18782 88.2658 10.027 88.263 10.8677V23.7465H82.7535ZM129.977 9.49861H111.889V14.2553H129.977V9.49861ZM129.977 18.9935H111.889V23.7465H129.977V18.9935ZM129.977 0H111.889V4.76044H129.977V0ZM104.662 19.5983C104.344 19.6601 104.042 19.7139 103.756 19.7597C103.299 19.8403 102.836 19.8856 102.371 19.8951C101.397 19.8951 100.729 19.6577 100.37 19.1827C100.01 18.7078 99.8307 17.9657 99.8307 16.9565V0H94.4095V18.4277C94.4062 19.1509 94.5029 19.8712 94.697 20.5686C94.8832 21.24 95.2336 21.8561 95.7173 22.3625C96.2765 22.9234 96.9614 23.3467 97.7167 23.5981C98.5635 23.9061 99.6409 24.06 100.949 24.06C101.853 24.0516 102.754 23.9616 103.641 23.791C103.993 23.7261 104.331 23.6445 104.662 23.5573V19.5983ZM104.662 4.81424H91.9911V9.57096H104.662V4.81424ZM14.9017 0H9.69662L0.0174561 23.6983H5.66598L7.57889 18.4332H17.0194L18.9323 23.6983H24.5808L14.9017 0ZM8.93935 14.58L12.2954 5.3541L15.6608 14.58H8.93935Z" fill="#6B003E"/>
</svg>
